0
SECTION
2
HEADER
9
$INSUNITS
70
4
0
ENDSEC
0
SECTION
2
TABLES
0
TABLE
2
LTYPE
0
LTYPE
72
65
70
64
2
CONTINUOUS
3
______
73
0
40
0
0
ENDTAB
0
TABLE
2
LAYER
0
ENDTAB
0
ENDSEC
0
SECTION
2
ENTITIES
0
LINE
8
0
10
52.0029062
20
-115.8798789
11
78.2876141
21
-43.6632373
0
LINE
8
0
10
80.6000197
20
-42.3947168
11
134.8872691
21
-54.434028
0
LINE
8
0
10
135.1382889
20
-54.5072035
11
156.5049925
21
-62.2840476
0
LINE
8
0
10
156.7443213
20
-62.3893444
11
189.0703776
21
-79.2142539
0
LINE
8
0
10
190.0263938
20
-81.6723825
11
185.1048528
21
-95.1942054
0
LINE
8
0
10
186.984238
20
-97.8782456
11
202.789018
21
-97.8782456
0
LINE
8
0
10
204.6684032
20
-95.1942054
11
199.7468622
21
-81.6723825
0
LINE
8
0
10
200.7028784
20
-79.2142539
11
233.0289347
21
-62.3893444
0
LINE
8
0
10
233.2682635
20
-62.2840476
11
254.6349671
21
-54.5072035
0
LINE
8
0
10
254.8859869
20
-54.434028
11
309.1732363
21
-42.3947168
0
LINE
8
0
10
311.4856419
20
-43.6632373
11
337.7703498
21
-115.8798789
0
LINE
8
0
10
337.1825426
20
-118.0909509
11
307.5838584
21
-143.1257999
0
LINE
8
0
10
307.0138772
20
-143.4640557
11
254.950339
21
-163.6051194
0
LINE
8
0
10
254.4860753
20
-163.8598994
11
221.8007612
21
-187.9269828
0
LINE
8
0
10
219.3293255
20
-187.848564
11
203.4728205
21
-174.5433765
0
LINE
8
0
10
202.1872452
20
-174.0754654
11
187.5860108
21
-174.0754654
0
LINE
8
0
10
186.3004355
20
-174.5433765
11
170.4439305
21
-187.848564
0
LINE
8
0
10
167.9724948
20
-187.9269828
11
135.2871807
21
-163.8598994
0
LINE
8
0
10
134.822917
20
-163.6051194
11
82.7593788
21
-143.4640557
0
LINE
8
0
10
82.1893976
20
-143.1257999
11
52.5907134
21
-118.0909509
0
ARC
8
0
10
80.1669993
20
-44.3472775
40
2
50
77.495858
51
160.0000019
0
ARC
8
0
10
134.4542487
20
-56.3865887
40
2
50
70.0000019
51
77.495858
0
ARC
8
0
10
155.8209523
20
-64.1634328
40
2
50
62.5041411
51
70.0000019
0
ARC
8
0
10
188.1470086
20
-80.9883423
40
2
50
340.0000019
51
62.5041411
0
ARC
8
0
10
186.984238
20
-95.8782456
40
2
50
160.0000019
51
270
0
ARC
8
0
10
202.789018
20
-95.8782456
40
2
50
270
51
19.9999981
0
ARC
8
0
10
201.6262474
20
-80.9883423
40
2
50
117.4958589
51
199.9999981
0
ARC
8
0
10
233.9523037
20
-64.1634328
40
2
50
109.9999981
51
117.4958589
0
ARC
8
0
10
255.3190073
20
-56.3865887
40
2
50
102.504142
51
109.9999981
0
ARC
8
0
10
309.6062567
20
-44.3472775
40
2
50
19.9999981
51
102.504142
0
ARC
8
0
10
335.8909646
20
-116.5639191
40
2
50
310.2248587
51
19.9999981
0
ARC
8
0
10
306.2922804
20
-141.5987681
40
2
50
291.1492372
51
310.2248587
0
ARC
8
0
10
255.6719358
20
-165.4704071
40
2
50
111.1492372
51
126.365223
0
ARC
8
0
10
220.6149007
20
-186.3164751
40
2
50
229.9999988
51
306.365223
0
ARC
8
0
10
202.1872452
20
-176.0754654
40
2
50
49.9999988
51
90
0
ARC
8
0
10
187.5860108
20
-176.0754654
40
2
50
90
51
130.0000012
0
ARC
8
0
10
169.1583553
20
-186.3164751
40
2
50
233.634777
51
310.0000012
0
ARC
8
0
10
134.1013202
20
-165.4704071
40
2
50
53.634777
51
68.8507628
0
ARC
8
0
10
83.4809756
20
-141.5987681
40
2
50
229.7751413
51
248.8507628
0
ARC
8
0
10
53.8822914
20
-116.5639191
40
2
50
160.0000019
51
229.7751413
0
ENDSEC
0
EOF