0
SECTION
2
HEADER
9
$INSUNITS
70
4
0
ENDSEC
0
SECTION
2
TABLES
0
TABLE
2
LTYPE
0
LTYPE
72
65
70
64
2
CONTINUOUS
3
______
73
0
40
0
0
ENDTAB
0
TABLE
2
LAYER
0
ENDTAB
0
ENDSEC
0
SECTION
2
ENTITIES
0
LINE
8
0
10
52.0029062
20
-115.8798789
11
78.2876141
21
-43.6632373
0
LINE
8
0
10
80.6000197
20
-42.3947168
11
134.8872691
21
-54.434028
0
LINE
8
0
10
135.1382889
20
-54.5072035
11
156.5049925
21
-62.2840476
0
LINE
8
0
10
156.7443213
20
-62.3893444
11
189.0703776
21
-79.2142539
0
LINE
8
0
10
190.0263938
20
-81.6723825
11
185.1048528
21
-95.1942054
0
LINE
8
0
10
186.984238
20
-97.8782456
11
202.789018
21
-97.8782456
0
LINE
8
0
10
204.6684032
20
-95.1942054
11
199.7468622
21
-81.6723825
0
LINE
8
0
10
200.7028784
20
-79.2142539
11
233.0289347
21
-62.3893444
0
LINE
8
0
10
233.2682635
20
-62.2840476
11
254.6349671
21
-54.5072035
0
LINE
8
0
10
254.8859869
20
-54.434028
11
309.1732363
21
-42.3947168
0
LINE
8
0
10
311.4856419
20
-43.6632373
11
337.7703498
21
-115.8798789
0
LINE
8
0
10
337.1825426
20
-118.0909509
11
307.5838584
21
-143.1257999
0
LINE
8
0
10
307.0138772
20
-143.4640557
11
254.950339
21
-163.6051194
0
LINE
8
0
10
254.4860753
20
-163.8598994
11
221.8007612
21
-187.9269828
0
LINE
8
0
10
219.3293255
20
-187.848564
11
203.4728205
21
-174.5433765
0
LINE
8
0
10
202.1872452
20
-174.0754654
11
187.5860108
21
-174.0754654
0
LINE
8
0
10
186.3004355
20
-174.5433765
11
170.4439305
21
-187.848564
0
LINE
8
0
10
167.9724948
20
-187.9269828
11
135.2871807
21
-163.8598994
0
LINE
8
0
10
134.822917
20
-163.6051194
11
82.7593788
21
-143.4640557
0
LINE
8
0
10
82.1893976
20
-143.1257999
11
52.5907134
21
-118.0909509
0
ARC
8
0
10
80.1669993
20
-44.3472775
40
2
50
77.495858
51
160.0000019
0
ARC
8
0
10
134.4542487
20
-56.3865887
40
2
50
70.0000019
51
77.495858
0
ARC
8
0
10
155.8209523
20
-64.1634328
40
2
50
62.5041411
51
70.0000019
0
ARC
8
0
10
188.1470086
20
-80.9883423
40
2
50
340.0000019
51
62.5041411
0
ARC
8
0
10
186.984238
20
-95.8782456
40
2
50
160.0000019
51
270
0
ARC
8
0
10
202.789018
20
-95.8782456
40
2
50
270
51
19.9999981
0
ARC
8
0
10
201.6262474
20
-80.9883423
40
2
50
117.4958589
51
199.9999981
0
ARC
8
0
10
233.9523037
20
-64.1634328
40
2
50
109.9999981
51
117.4958589
0
ARC
8
0
10
255.3190073
20
-56.3865887
40
2
50
102.504142
51
109.9999981
0
ARC
8
0
10
309.6062567
20
-44.3472775
40
2
50
19.9999981
51
102.504142
0
ARC
8
0
10
335.8909646
20
-116.5639191
40
2
50
310.2248587
51
19.9999981
0
ARC
8
0
10
306.2922804
20
-141.5987681
40
2
50
291.1492372
51
310.2248587
0
ARC
8
0
10
255.6719358
20
-165.4704071
40
2
50
111.1492372
51
126.365223
0
ARC
8
0
10
220.6149007
20
-186.3164751
40
2
50
229.9999988
51
306.365223
0
ARC
8
0
10
202.1872452
20
-176.0754654
40
2
50
49.9999988
51
90
0
ARC
8
0
10
187.5860108
20
-176.0754654
40
2
50
90
51
130.0000012
0
ARC
8
0
10
169.1583553
20
-186.3164751
40
2
50
233.634777
51
310.0000012
0
ARC
8
0
10
134.1013202
20
-165.4704071
40
2
50
53.634777
51
68.8507628
0
ARC
8
0
10
83.4809756
20
-141.5987681
40
2
50
229.7751413
51
248.8507628
0
ARC
8
0
10
53.8822914
20
-116.5639191
40
2
50
160.0000019
51
229.7751413
0
LINE
8
0
10
54.4097874
20
-115.845587
11
71.7941009
21
-122.1729597
0
LINE
8
0
10
71.7941009
20
-122.1729597
11
78.1214736
21
-104.7886462
0
LINE
8
0
10
78.1214736
20
-104.7886462
11
60.7371601
21
-98.4612735
0
LINE
8
0
10
60.7371601
20
-98.4612735
11
54.4097874
21
-115.845587
0
LINE
8
0
10
60.9081701
20
-97.9914272
11
78.2924836
21
-104.3187999
0
LINE
8
0
10
78.2924836
20
-104.3187999
11
84.6198563
21
-86.9344864
0
LINE
8
0
10
84.6198563
20
-86.9344864
11
67.2355428
21
-80.6071137
0
LINE
8
0
10
67.2355428
20
-80.6071137
11
60.9081701
21
-97.9914272
0
LINE
8
0
10
67.4065528
20
-80.1372674
11
84.7908663
21
-86.4646401
0
LINE
8
0
10
84.7908663
20
-86.4646401
11
91.118239
21
-69.0803266
0
LINE
8
0
10
91.118239
20
-69.0803266
11
73.7339255
21
-62.7529539
0
LINE
8
0
10
73.7339255
20
-62.7529539
11
67.4065528
21
-80.1372674
0
LINE
8
0
10
73.9049355
20
-62.2831076
11
91.289249
21
-68.6104803
0
LINE
8
0
10
91.289249
20
-68.6104803
11
97.6166217
21
-51.2261668
0
LINE
8
0
10
97.6166217
20
-51.2261668
11
80.2323082
21
-44.8987941
0
LINE
8
0
10
80.2323082
20
-44.8987941
11
73.9049355
21
-62.2831076
0
LINE
8
0
10
72.2639472
20
-122.3439697
11
89.6482607
21
-128.6713424
0
LINE
8
0
10
89.6482607
20
-128.6713424
11
95.9756334
21
-111.2870289
0
LINE
8
0
10
95.9756334
20
-111.2870289
11
78.5913199
21
-104.9596562
0
LINE
8
0
10
78.5913199
20
-104.9596562
11
72.2639472
21
-122.3439697
0
LINE
8
0
10
78.7623299
20
-104.4898099
11
96.1466434
21
-110.8171826
0
LINE
8
0
10
96.1466434
20
-110.8171826
11
102.4740161
21
-93.4328691
0
LINE
8
0
10
102.4740161
20
-93.4328691
11
85.0897026
21
-87.1054964
0
LINE
8
0
10
85.0897026
20
-87.1054964
11
78.7623299
21
-104.4898099
0
LINE
8
0
10
85.2607126
20
-86.6356501
11
102.6450261
21
-92.9630228
0
LINE
8
0
10
102.6450261
20
-92.9630228
11
108.9723988
21
-75.5787093
0
LINE
8
0
10
108.9723988
20
-75.5787093
11
91.5880853
21
-69.2513366
0
LINE
8
0
10
91.5880853
20
-69.2513366
11
85.2607126
21
-86.6356501
0
LINE
8
0
10
91.7590953
20
-68.7814904
11
109.1434088
21
-75.1088631
0
LINE
8
0
10
109.1434088
20
-75.1088631
11
115.4707815
21
-57.7245496
0
LINE
8
0
10
115.4707815
20
-57.7245496
11
98.086468
21
-51.3971769
0
LINE
8
0
10
98.086468
20
-51.3971769
11
91.7590953
21
-68.7814904
0
LINE
8
0
10
85.329825
20
-141.9980492
11
102.7141385
21
-148.3254219
0
LINE
8
0
10
102.7141385
20
-148.3254219
11
109.0415112
21
-130.9411084
0
LINE
8
0
10
109.0415112
20
-130.9411084
11
91.6571977
21
-124.6137357
0
LINE
8
0
10
91.6571977
20
-124.6137357
11
85.329825
21
-141.9980492
0
LINE
8
0
10
91.8282077
20
-124.1438894
11
109.2125212
21
-130.4712621
0
LINE
8
0
10
109.2125212
20
-130.4712621
11
115.5398939
21
-113.0869486
0
LINE
8
0
10
115.5398939
20
-113.0869486
11
98.1555804
21
-106.7595759
0
LINE
8
0
10
98.1555804
20
-106.7595759
11
91.8282077
21
-124.1438894
0
LINE
8
0
10
98.3265904
20
-106.2897296
11
115.7109039
21
-112.6171023
0
LINE
8
0
10
115.7109039
20
-112.6171023
11
122.0382766
21
-95.2327888
0
LINE
8
0
10
122.0382766
20
-95.2327888
11
104.6539631
21
-88.9054161
0
LINE
8
0
10
104.6539631
20
-88.9054161
11
98.3265904
21
-106.2897296
0
LINE
8
0
10
104.8249731
20
-88.4355698
11
122.2092866
21
-94.7629425
0
LINE
8
0
10
122.2092866
20
-94.7629425
11
128.5366593
21
-77.378629
0
LINE
8
0
10
128.5366593
20
-77.378629
11
111.1523458
21
-71.0512563
0
LINE
8
0
10
111.1523458
20
-71.0512563
11
104.8249731
21
-88.4355698
0
LINE
8
0
10
111.3233558
20
-70.58141
11
128.7076693
21
-76.9087827
0
LINE
8
0
10
128.7076693
20
-76.9087827
11
135.035042
21
-59.5244692
0
LINE
8
0
10
135.035042
20
-59.5244692
11
117.6507285
21
-53.1970965
0
LINE
8
0
10
117.6507285
20
-53.1970965
11
111.3233558
21
-70.58141
0
LINE
8
0
10
104.0390351
20
-146.1472003
11
121.4233486
21
-152.474573
0
LINE
8
0
10
121.4233486
20
-152.474573
11
127.7507213
21
-135.0902595
0
LINE
8
0
10
127.7507213
20
-135.0902595
11
110.3664078
21
-128.7628868
0
LINE
8
0
10
110.3664078
20
-128.7628868
11
104.0390351
21
-146.1472003
0
LINE
8
0
10
110.5374178
20
-128.2930405
11
127.9217313
21
-134.6204132
0
LINE
8
0
10
127.9217313
20
-134.6204132
11
134.249104
21
-117.2360997
0
LINE
8
0
10
134.249104
20
-117.2360997
11
116.8647905
21
-110.908727
0
LINE
8
0
10
116.8647905
20
-110.908727
11
110.5374178
21
-128.2930405
0
LINE
8
0
10
117.0358006
20
-110.4388807
11
134.4201141
21
-116.7662534
0
LINE
8
0
10
134.4201141
20
-116.7662534
11
140.7474868
21
-99.3819399
0
LINE
8
0
10
140.7474868
20
-99.3819399
11
123.3631733
21
-93.0545672
0
LINE
8
0
10
123.3631733
20
-93.0545672
11
117.0358006
21
-110.4388807
0
LINE
8
0
10
123.5341833
20
-92.5847209
11
140.9184968
21
-98.9120936
0
LINE
8
0
10
140.9184968
20
-98.9120936
11
147.2458695
21
-81.5277801
0
LINE
8
0
10
147.2458695
20
-81.5277801
11
129.861556
21
-75.2004074
0
LINE
8
0
10
129.861556
20
-75.2004074
11
123.5341833
21
-92.5847209
0
LINE
8
0
10
130.032566
20
-74.7305611
11
147.4168795
21
-81.0579338
0
LINE
8
0
10
147.4168795
20
-81.0579338
11
153.7442522
21
-63.6736203
0
LINE
8
0
10
153.7442522
20
-63.6736203
11
136.3599387
21
-57.3462476
0
LINE
8
0
10
136.3599387
20
-57.3462476
11
130.032566
21
-74.7305611
0
LINE
8
0
10
121.0381445
20
-154.9948146
11
138.422458
21
-161.3221873
0
LINE
8
0
10
138.422458
20
-161.3221873
11
144.7498307
21
-143.9378738
0
LINE
8
0
10
144.7498307
20
-143.9378738
11
127.3655172
21
-137.6105011
0
LINE
8
0
10
127.3655172
20
-137.6105011
11
121.0381445
21
-154.9948146
0
LINE
8
0
10
127.5365273
20
-137.1406548
11
144.9208408
21
-143.4680275
0
LINE
8
0
10
144.9208408
20
-143.4680275
11
151.2482135
21
-126.083714
0
LINE
8
0
10
151.2482135
20
-126.083714
11
133.8639
21
-119.7563413
0
LINE
8
0
10
133.8639
20
-119.7563413
11
127.5365273
21
-137.1406548
0
LINE
8
0
10
134.03491
20
-119.286495
11
151.4192235
21
-125.6138677
0
LINE
8
0
10
151.4192235
20
-125.6138677
11
157.7465962
21
-108.2295542
0
LINE
8
0
10
157.7465962
20
-108.2295542
11
140.3622827
21
-101.9021815
0
LINE
8
0
10
140.3622827
20
-101.9021815
11
134.03491
21
-119.286495
0
LINE
8
0
10
140.5332927
20
-101.4323352
11
157.9176062
21
-107.7597079
0
LINE
8
0
10
157.9176062
20
-107.7597079
11
164.2449789
21
-90.3753944
0
LINE
8
0
10
164.2449789
20
-90.3753944
11
146.8606654
21
-84.0480217
0
LINE
8
0
10
146.8606654
20
-84.0480217
11
140.5332927
21
-101.4323352
0
LINE
8
0
10
147.0316754
20
-83.5781754
11
164.4159889
21
-89.9055481
0
LINE
8
0
10
164.4159889
20
-89.9055481
11
170.7433616
21
-72.5212346
0
LINE
8
0
10
170.7433616
20
-72.5212346
11
153.3590481
21
-66.1938619
0
LINE
8
0
10
153.3590481
20
-66.1938619
11
147.0316754
21
-83.5781754
0
LINE
8
0
10
144.5356367
20
-145.9882691
11
161.9199502
21
-152.3156418
0
LINE
8
0
10
161.9199502
20
-152.3156418
11
168.2473229
21
-134.9313283
0
LINE
8
0
10
168.2473229
20
-134.9313283
11
150.8630094
21
-128.6039556
0
LINE
8
0
10
150.8630094
20
-128.6039556
11
144.5356367
21
-145.9882691
0
LINE
8
0
10
151.0340194
20
-128.1341093
11
168.4183329
21
-134.461482
0
LINE
8
0
10
168.4183329
20
-134.461482
11
174.7457056
21
-117.0771685
0
LINE
8
0
10
174.7457056
20
-117.0771685
11
157.3613921
21
-110.7497958
0
LINE
8
0
10
157.3613921
20
-110.7497958
11
151.0340194
21
-128.1341093
0
LINE
8
0
10
157.5324021
20
-110.2799495
11
174.9167156
21
-116.6073222
0
LINE
8
0
10
174.9167156
20
-116.6073222
11
181.2440883
21
-99.2230087
0
LINE
8
0
10
181.2440883
20
-99.2230087
11
163.8597748
21
-92.895636
0
LINE
8
0
10
163.8597748
20
-92.895636
11
157.5324021
21
-110.2799495
0
LINE
8
0
10
164.0307849
20
-92.4257897
11
181.4150984
21
-98.7531624
0
LINE
8
0
10
181.4150984
20
-98.7531624
11
187.7424711
21
-81.3688489
0
LINE
8
0
10
187.7424711
20
-81.3688489
11
170.3581576
21
-75.0414762
0
LINE
8
0
10
170.3581576
20
-75.0414762
11
164.0307849
21
-92.4257897
0
LINE
8
0
10
138.2057036
20
-163.1489584
11
153.3600164
21
-173.7601224
0
LINE
8
0
10
153.3600164
20
-173.7601224
11
163.9711804
21
-158.6058096
0
LINE
8
0
10
163.9711804
20
-158.6058096
11
148.8168676
21
-147.9946456
0
LINE
8
0
10
148.8168676
20
-147.9946456
11
138.2057036
21
-163.1489584
0
LINE
8
0
10
169.516376
20
-185.6897083
11
183.6881982
21
-173.7981375
0
LINE
8
0
10
183.6881982
20
-173.7981375
11
171.7966274
21
-159.6263153
0
LINE
8
0
10
171.7966274
20
-159.6263153
11
157.6248052
21
-171.5178861
0
LINE
8
0
10
157.6248052
20
-171.5178861
11
169.516376
21
-185.6897083
0
LINE
8
0
10
317.9791551
20
-122.1729597
11
335.3634686
21
-115.845587
0
LINE
8
0
10
335.3634686
20
-115.845587
11
329.0360959
21
-98.4612735
0
LINE
8
0
10
329.0360959
20
-98.4612735
11
311.6517824
21
-104.7886462
0
LINE
8
0
10
311.6517824
20
-104.7886462
11
317.9791551
21
-122.1729597
0
LINE
8
0
10
311.4807724
20
-104.3187999
11
328.8650859
21
-97.9914272
0
LINE
8
0
10
328.8650859
20
-97.9914272
11
322.5377132
21
-80.6071137
0
LINE
8
0
10
322.5377132
20
-80.6071137
11
305.1533997
21
-86.9344864
0
LINE
8
0
10
305.1533997
20
-86.9344864
11
311.4807724
21
-104.3187999
0
LINE
8
0
10
304.9823897
20
-86.4646401
11
322.3667032
21
-80.1372674
0
LINE
8
0
10
322.3667032
20
-80.1372674
11
316.0393305
21
-62.7529539
0
LINE
8
0
10
316.0393305
20
-62.7529539
11
298.655017
21
-69.0803266
0
LINE
8
0
10
298.655017
20
-69.0803266
11
304.9823897
21
-86.4646401
0
LINE
8
0
10
298.484007
20
-68.6104803
11
315.8683205
21
-62.2831076
0
LINE
8
0
10
315.8683205
20
-62.2831076
11
309.5409478
21
-44.8987941
0
LINE
8
0
10
309.5409478
20
-44.8987941
11
292.1566343
21
-51.2261668
0
LINE
8
0
10
292.1566343
20
-51.2261668
11
298.484007
21
-68.6104803
0
LINE
8
0
10
300.1249953
20
-128.6713424
11
317.5093088
21
-122.3439697
0
LINE
8
0
10
317.5093088
20
-122.3439697
11
311.1819361
21
-104.9596562
0
LINE
8
0
10
311.1819361
20
-104.9596562
11
293.7976226
21
-111.2870289
0
LINE
8
0
10
293.7976226
20
-111.2870289
11
300.1249953
21
-128.6713424
0
LINE
8
0
10
293.6266126
20
-110.8171826
11
311.0109261
21
-104.4898099
0
LINE
8
0
10
311.0109261
20
-104.4898099
11
304.6835534
21
-87.1054964
0
LINE
8
0
10
304.6835534
20
-87.1054964
11
287.2992399
21
-93.4328691
0
LINE
8
0
10
287.2992399
20
-93.4328691
11
293.6266126
21
-110.8171826
0
LINE
8
0
10
287.1282299
20
-92.9630228
11
304.5125434
21
-86.6356501
0
LINE
8
0
10
304.5125434
20
-86.6356501
11
298.1851707
21
-69.2513366
0
LINE
8
0
10
298.1851707
20
-69.2513366
11
280.8008572
21
-75.5787093
0
LINE
8
0
10
280.8008572
20
-75.5787093
11
287.1282299
21
-92.9630228
0
LINE
8
0
10
280.6298472
20
-75.1088631
11
298.0141607
21
-68.7814904
0
LINE
8
0
10
298.0141607
20
-68.7814904
11
291.686788
21
-51.3971769
0
LINE
8
0
10
291.686788
20
-51.3971769
11
274.3024745
21
-57.7245496
0
LINE
8
0
10
274.3024745
20
-57.7245496
11
280.6298472
21
-75.1088631
0
LINE
8
0
10
287.0591175
20
-148.3254219
11
304.443431
21
-141.9980492
0
LINE
8
0
10
304.443431
20
-141.9980492
11
298.1160583
21
-124.6137357
0
LINE
8
0
10
298.1160583
20
-124.6137357
11
280.7317448
21
-130.9411084
0
LINE
8
0
10
280.7317448
20
-130.9411084
11
287.0591175
21
-148.3254219
0
LINE
8
0
10
280.5607348
20
-130.4712621
11
297.9450483
21
-124.1438894
0
LINE
8
0
10
297.9450483
20
-124.1438894
11
291.6176756
21
-106.7595759
0
LINE
8
0
10
291.6176756
20
-106.7595759
11
274.2333621
21
-113.0869486
0
LINE
8
0
10
274.2333621
20
-113.0869486
11
280.5607348
21
-130.4712621
0
LINE
8
0
10
274.0623521
20
-112.6171023
11
291.4466656
21
-106.2897296
0
LINE
8
0
10
291.4466656
20
-106.2897296
11
285.1192929
21
-88.9054161
0
LINE
8
0
10
285.1192929
20
-88.9054161
11
267.7349794
21
-95.2327888
0
LINE
8
0
10
267.7349794
20
-95.2327888
11
274.0623521
21
-112.6171023
0
LINE
8
0
10
267.5639694
20
-94.7629425
11
284.9482829
21
-88.4355698
0
LINE
8
0
10
284.9482829
20
-88.4355698
11
278.6209102
21
-71.0512563
0
LINE
8
0
10
278.6209102
20
-71.0512563
11
261.2365967
21
-77.378629
0
LINE
8
0
10
261.2365967
20
-77.378629
11
267.5639694
21
-94.7629425
0
LINE
8
0
10
261.0655867
20
-76.9087827
11
278.4499002
21
-70.58141
0
LINE
8
0
10
278.4499002
20
-70.58141
11
272.1225275
21
-53.1970965
0
LINE
8
0
10
272.1225275
20
-53.1970965
11
254.738214
21
-59.5244692
0
LINE
8
0
10
254.738214
20
-59.5244692
11
261.0655867
21
-76.9087827
0
LINE
8
0
10
268.3499074
20
-152.474573
11
285.7342209
21
-146.1472003
0
LINE
8
0
10
285.7342209
20
-146.1472003
11
279.4068482
21
-128.7628868
0
LINE
8
0
10
279.4068482
20
-128.7628868
11
262.0225347
21
-135.0902595
0
LINE
8
0
10
262.0225347
20
-135.0902595
11
268.3499074
21
-152.474573
0
LINE
8
0
10
261.8515247
20
-134.6204132
11
279.2358382
21
-128.2930405
0
LINE
8
0
10
279.2358382
20
-128.2930405
11
272.9084655
21
-110.908727
0
LINE
8
0
10
272.9084655
20
-110.908727
11
255.524152
21
-117.2360997
0
LINE
8
0
10
255.524152
20
-117.2360997
11
261.8515247
21
-134.6204132
0
LINE
8
0
10
255.3531419
20
-116.7662534
11
272.7374554
21
-110.4388807
0
LINE
8
0
10
272.7374554
20
-110.4388807
11
266.4100827
21
-93.0545672
0
LINE
8
0
10
266.4100827
20
-93.0545672
11
249.0257692
21
-99.3819399
0
LINE
8
0
10
249.0257692
20
-99.3819399
11
255.3531419
21
-116.7662534
0
LINE
8
0
10
248.8547592
20
-98.9120936
11
266.2390727
21
-92.5847209
0
LINE
8
0
10
266.2390727
20
-92.5847209
11
259.9117
21
-75.2004074
0
LINE
8
0
10
259.9117
20
-75.2004074
11
242.5273865
21
-81.5277801
0
LINE
8
0
10
242.5273865
20
-81.5277801
11
248.8547592
21
-98.9120936
0
LINE
8
0
10
242.3563765
20
-81.0579338
11
259.74069
21
-74.7305611
0
LINE
8
0
10
259.74069
20
-74.7305611
11
253.4133173
21
-57.3462476
0
LINE
8
0
10
253.4133173
20
-57.3462476
11
236.0290038
21
-63.6736203
0
LINE
8
0
10
236.0290038
20
-63.6736203
11
242.3563765
21
-81.0579338
0
LINE
8
0
10
251.350798
20
-161.3221873
11
268.7351115
21
-154.9948146
0
LINE
8
0
10
268.7351115
20
-154.9948146
11
262.4077388
21
-137.6105011
0
LINE
8
0
10
262.4077388
20
-137.6105011
11
245.0234253
21
-143.9378738
0
LINE
8
0
10
245.0234253
20
-143.9378738
11
251.350798
21
-161.3221873
0
LINE
8
0
10
244.8524152
20
-143.4680275
11
262.2367287
21
-137.1406548
0
LINE
8
0
10
262.2367287
20
-137.1406548
11
255.909356
21
-119.7563413
0
LINE
8
0
10
255.909356
20
-119.7563413
11
238.5250425
21
-126.083714
0
LINE
8
0
10
238.5250425
20
-126.083714
11
244.8524152
21
-143.4680275
0
LINE
8
0
10
238.3540325
20
-125.6138677
11
255.738346
21
-119.286495
0
LINE
8
0
10
255.738346
20
-119.286495
11
249.4109733
21
-101.9021815
0
LINE
8
0
10
249.4109733
20
-101.9021815
11
232.0266598
21
-108.2295542
0
LINE
8
0
10
232.0266598
20
-108.2295542
11
238.3540325
21
-125.6138677
0
LINE
8
0
10
231.8556498
20
-107.7597079
11
249.2399633
21
-101.4323352
0
LINE
8
0
10
249.2399633
20
-101.4323352
11
242.9125906
21
-84.0480217
0
LINE
8
0
10
242.9125906
20
-84.0480217
11
225.5282771
21
-90.3753944
0
LINE
8
0
10
225.5282771
20
-90.3753944
11
231.8556498
21
-107.7597079
0
LINE
8
0
10
225.3572671
20
-89.9055481
11
242.7415806
21
-83.5781754
0
LINE
8
0
10
242.7415806
20
-83.5781754
11
236.4142079
21
-66.1938619
0
LINE
8
0
10
236.4142079
20
-66.1938619
11
219.0298944
21
-72.5212346
0
LINE
8
0
10
219.0298944
20
-72.5212346
11
225.3572671
21
-89.9055481
0
LINE
8
0
10
227.8533058
20
-152.3156418
11
245.2376193
21
-145.9882691
0
LINE
8
0
10
245.2376193
20
-145.9882691
11
238.9102466
21
-128.6039556
0
LINE
8
0
10
238.9102466
20
-128.6039556
11
221.5259331
21
-134.9313283
0
LINE
8
0
10
221.5259331
20
-134.9313283
11
227.8533058
21
-152.3156418
0
LINE
8
0
10
221.3549231
20
-134.461482
11
238.7392366
21
-128.1341093
0
LINE
8
0
10
238.7392366
20
-128.1341093
11
232.4118639
21
-110.7497958
0
LINE
8
0
10
232.4118639
20
-110.7497958
11
215.0275504
21
-117.0771685
0
LINE
8
0
10
215.0275504
20
-117.0771685
11
221.3549231
21
-134.461482
0
LINE
8
0
10
214.8565404
20
-116.6073222
11
232.2408539
21
-110.2799495
0
LINE
8
0
10
232.2408539
20
-110.2799495
11
225.9134812
21
-92.895636
0
LINE
8
0
10
225.9134812
20
-92.895636
11
208.5291677
21
-99.2230087
0
LINE
8
0
10
208.5291677
20
-99.2230087
11
214.8565404
21
-116.6073222
0
LINE
8
0
10
208.3581576
20
-98.7531624
11
225.7424711
21
-92.4257897
0
LINE
8
0
10
225.7424711
20
-92.4257897
11
219.4150984
21
-75.0414762
0
LINE
8
0
10
219.4150984
20
-75.0414762
11
202.0307849
21
-81.3688489
0
LINE
8
0
10
202.0307849
20
-81.3688489
11
208.3581576
21
-98.7531624
0
LINE
8
0
10
236.4132396
20
-173.7601224
11
251.5675524
21
-163.1489584
0
LINE
8
0
10
251.5675524
20
-163.1489584
11
240.9563884
21
-147.9946456
0
LINE
8
0
10
240.9563884
20
-147.9946456
11
225.8020756
21
-158.6058096
0
LINE
8
0
10
225.8020756
20
-158.6058096
11
236.4132396
21
-173.7601224
0
LINE
8
0
10
206.0850578
20
-173.7981375
11
220.25688
21
-185.6897083
0
LINE
8
0
10
220.25688
20
-185.6897083
11
232.1484508
21
-171.5178861
0
LINE
8
0
10
232.1484508
20
-171.5178861
11
217.9766286
21
-159.6263153
0
LINE
8
0
10
217.9766286
20
-159.6263153
11
206.0850578
21
-173.7981375
0
ENDSEC
0
EOF