0
SECTION
2
HEADER
9
$INSUNITS
70
4
0
ENDSEC
0
SECTION
2
TABLES
0
TABLE
2
LTYPE
0
LTYPE
72
65
70
64
2
CONTINUOUS
3
______
73
0
40
0
0
ENDTAB
0
TABLE
2
LAYER
0
ENDTAB
0
ENDSEC
0
SECTION
2
ENTITIES
0
LINE
8
0
10
54.0893592
20
-115.9950051
11
89.7976788
21
-128.9917706
0
LINE
8
0
10
54.0893592
20
-115.9950051
11
80.0828901
21
-44.5783659
0
LINE
8
0
10
80.0828901
20
-44.5783659
11
106.3942835
21
-54.15493
0
LINE
8
0
10
85.0093968
20
-142.1474673
11
112.2604828
21
-152.0660515
0
LINE
8
0
10
85.0093968
20
-142.1474673
11
89.7976788
21
-128.9917706
0
LINE
8
0
10
113.1155332
20
-149.7168199
11
112.2604828
21
-152.0660515
0
LINE
8
0
10
108.1043842
20
-49.4564669
11
125.958544
21
-55.9548496
0
LINE
8
0
10
106.3942835
20
-54.15493
11
108.1043842
21
-49.4564669
0
LINE
8
0
10
113.1155332
20
-149.7168199
11
121.5727667
21
-152.7950012
0
LINE
8
0
10
153.20963
20
-65.8734337
11
154.0646804
21
-63.5242022
0
LINE
8
0
10
126.8135944
20
-53.605618
11
154.0646804
21
-63.5242022
0
LINE
8
0
10
125.958544
20
-55.9548496
11
126.8135944
21
-53.605618
0
LINE
8
0
10
120.7177163
20
-155.1442327
11
138.5718761
21
-161.6426155
0
LINE
8
0
10
138.5718761
20
-161.6426155
11
141.6500574
21
-153.1853818
0
LINE
8
0
10
121.5727667
20
-152.7950012
11
120.7177163
21
-155.1442327
0
LINE
8
0
10
153.6121347
20
-149.5578887
11
153.1801796
21
-150.7446758
0
LINE
8
0
10
144.2216889
20
-154.1213791
11
141.6500574
21
-153.1853818
0
LINE
8
0
10
170.2087395
20
-74.721048
11
171.0637898
21
-72.3718165
0
LINE
8
0
10
153.20963
20
-65.8734337
11
171.0637898
21
-72.3718165
0
LINE
8
0
10
153.6121347
20
-149.5578887
11
162.0693683
21
-152.63607
0
LINE
8
0
10
162.0693683
20
-152.63607
11
188.0628993
21
-81.2194308
0
LINE
8
0
10
170.2087395
20
-74.721048
11
188.0628993
21
-81.2194308
0
LINE
8
0
10
137.8575214
20
-163.2103523
11
153.4214103
21
-174.1083046
0
LINE
8
0
10
153.4214103
20
-174.1083046
11
164.3193626
21
-158.5444157
0
LINE
8
0
10
164.3193626
20
-158.5444157
11
153.1801796
21
-150.7446758
0
LINE
8
0
10
144.2216889
20
-154.1213791
11
137.8575214
21
-163.2103523
0
LINE
8
0
10
169.4855618
20
-186.0419163
11
184.0404062
21
-173.8289517
0
LINE
8
0
10
184.0404062
20
-173.8289517
11
171.8274416
21
-159.2741073
0
LINE
8
0
10
171.8274416
20
-159.2741073
11
157.2725972
21
-171.4870719
0
LINE
8
0
10
157.2725972
20
-171.4870719
11
169.4855618
21
-186.0419163
0
LINE
8
0
10
299.9755772
20
-128.9917706
11
335.6838968
21
-115.9950051
0
LINE
8
0
10
309.6903659
20
-44.5783659
11
335.6838968
21
-115.9950051
0
LINE
8
0
10
283.3789725
20
-54.15493
11
309.6903659
21
-44.5783659
0
LINE
8
0
10
277.5127732
20
-152.0660515
11
304.7638592
21
-142.1474673
0
LINE
8
0
10
299.9755772
20
-128.9917706
11
304.7638592
21
-142.1474673
0
LINE
8
0
10
277.5127732
20
-152.0660515
11
276.6577228
21
-149.7168199
0
LINE
8
0
10
263.814712
20
-55.9548496
11
281.6688718
21
-49.4564669
0
LINE
8
0
10
281.6688718
20
-49.4564669
11
283.3789725
21
-54.15493
0
LINE
8
0
10
268.2004893
20
-152.7950012
11
276.6577228
21
-149.7168199
0
LINE
8
0
10
235.7085756
20
-63.5242022
11
262.9596616
21
-53.605618
0
LINE
8
0
10
235.7085756
20
-63.5242022
11
236.563626
21
-65.8734337
0
LINE
8
0
10
262.9596616
20
-53.605618
11
263.814712
21
-55.9548496
0
LINE
8
0
10
251.2013799
20
-161.6426155
11
269.0555397
21
-155.1442327
0
LINE
8
0
10
269.0555397
20
-155.1442327
11
268.2004893
21
-152.7950012
0
LINE
8
0
10
248.1231986
20
-153.1853818
11
251.2013799
21
-161.6426155
0
LINE
8
0
10
248.1231986
20
-153.1853818
11
245.5515671
21
-154.1213791
0
LINE
8
0
10
236.5930764
20
-150.7446758
11
236.1611213
21
-149.5578887
0
LINE
8
0
10
218.7094662
20
-72.3718165
11
236.563626
21
-65.8734337
0
LINE
8
0
10
218.7094662
20
-72.3718165
11
219.5645165
21
-74.721048
0
LINE
8
0
10
227.7038877
20
-152.63607
11
236.1611213
21
-149.5578887
0
LINE
8
0
10
201.7103567
20
-81.2194308
11
227.7038877
21
-152.63607
0
LINE
8
0
10
201.7103567
20
-81.2194308
11
219.5645165
21
-74.721048
0
LINE
8
0
10
236.3518457
20
-174.1083046
11
251.9157346
21
-163.2103523
0
LINE
8
0
10
251.9157346
20
-163.2103523
11
245.5515671
21
-154.1213791
0
LINE
8
0
10
236.5930764
20
-150.7446758
11
225.4538934
21
-158.5444157
0
LINE
8
0
10
225.4538934
20
-158.5444157
11
236.3518457
21
-174.1083046
0
LINE
8
0
10
205.7328498
20
-173.8289517
11
220.2876942
21
-186.0419163
0
LINE
8
0
10
220.2876942
20
-186.0419163
11
232.5006588
21
-171.4870719
0
LINE
8
0
10
232.5006588
20
-171.4870719
11
217.9458144
21
-159.2741073
0
LINE
8
0
10
217.9458144
20
-159.2741073
11
205.7328498
21
-173.8289517
0
ENDSEC
0
EOF