0
SECTION
2
HEADER
9
$INSUNITS
70
4
0
ENDSEC
0
SECTION
2
TABLES
0
TABLE
2
LTYPE
0
LTYPE
72
65
70
64
2
CONTINUOUS
3
______
73
0
40
0
0
ENDTAB
0
TABLE
2
LAYER
0
ENDTAB
0
ENDSEC
0
SECTION
2
ENTITIES
0
LINE
8
0
10
49.4394807
20
-117.0752238
11
77.0922692
21
-41.0998118
0
LINE
8
0
10
79.4046748
20
-39.8312913
11
133.6919242
21
-51.8706025
0
LINE
8
0
10
133.942944
20
-51.943778
11
159.068418
21
-61.0887027
0
LINE
8
0
10
159.3077468
20
-61.1939995
11
191.6338031
21
-78.018909
0
LINE
8
0
10
192.5898193
20
-80.4770376
11
187.6682783
21
-93.9988605
0
LINE
8
0
10
189.5476635
20
-96.6829007
11
200.2255925
21
-96.6829007
0
LINE
8
0
10
202.1049777
20
-93.9988605
11
197.1834367
21
-80.4770376
0
LINE
8
0
10
198.1394529
20
-78.018909
11
230.4655092
21
-61.1939995
0
LINE
8
0
10
230.704838
20
-61.0887027
11
255.830312
21
-51.943778
0
LINE
8
0
10
256.0813318
20
-51.8706025
11
310.3685812
21
-39.8312913
0
LINE
8
0
10
312.6809868
20
-41.0998118
11
340.3337753
21
-117.0752238
0
LINE
8
0
10
339.7459681
20
-119.2862958
11
310.1553798
21
-144.3142971
0
LINE
8
0
10
309.5661418
20
-144.6598888
11
257.7542657
21
-164.092283
0
LINE
8
0
10
257.2578581
20
-164.3639679
11
222.05018
21
-190.726702
0
LINE
8
0
10
219.5658572
20
-190.6578522
11
200.6551564
21
-174.7898902
0
LINE
8
0
10
199.3695811
20
-174.3219791
11
190.4036749
21
-174.3219791
0
LINE
8
0
10
189.1180996
20
-174.7898902
11
170.2073988
21
-190.6578522
0
LINE
8
0
10
167.723076
20
-190.726702
11
132.5153979
21
-164.3639679
0
LINE
8
0
10
132.0189903
20
-164.092283
11
80.2071142
21
-144.6598888
0
LINE
8
0
10
79.6178762
20
-144.3142971
11
50.0272879
21
-119.2862958
0
ARC
8
0
10
78.9716544
20
-41.783852
40
2
50
77.495858
51
160.0000019
0
ARC
8
0
10
133.2589038
20
-53.8231632
40
2
50
70.0000019
51
77.495858
0
ARC
8
0
10
158.3843778
20
-62.9680879
40
2
50
62.5041411
51
70.0000019
0
ARC
8
0
10
190.7104341
20
-79.7929974
40
2
50
340.0000019
51
62.5041411
0
ARC
8
0
10
189.5476635
20
-94.6829007
40
2
50
160.0000019
51
270
0
ARC
8
0
10
200.2255925
20
-94.6829007
40
2
50
270
51
19.9999981
0
ARC
8
0
10
199.0628219
20
-79.7929974
40
2
50
117.4958589
51
199.9999981
0
ARC
8
0
10
231.3888782
20
-62.9680879
40
2
50
109.9999981
51
117.4958589
0
ARC
8
0
10
256.5143522
20
-53.8231632
40
2
50
102.504142
51
109.9999981
0
ARC
8
0
10
310.8016016
20
-41.783852
40
2
50
19.9999981
51
102.504142
0
ARC
8
0
10
338.4543901
20
-117.759264
40
2
50
310.2248587
51
19.9999981
0
ARC
8
0
10
308.8638018
20
-142.7872653
40
2
50
290.5588946
51
310.2248587
0
ARC
8
0
10
258.4566057
20
-165.9649065
40
2
50
110.5588946
51
126.8250614
0
ARC
8
0
10
220.8514324
20
-189.1257634
40
2
50
229.9999988
51
306.8250614
0
ARC
8
0
10
199.3695811
20
-176.3219791
40
2
50
49.9999988
51
90
0
ARC
8
0
10
190.4036749
20
-176.3219791
40
2
50
90
51
130.0000012
0
ARC
8
0
10
168.9218236
20
-189.1257634
40
2
50
233.1749386
51
310.0000012
0
ARC
8
0
10
131.3166503
20
-165.9649065
40
2
50
53.1749386
51
69.4411054
0
ARC
8
0
10
80.9094542
20
-142.7872653
40
2
50
229.7751413
51
249.4411054
0
ARC
8
0
10
51.3188659
20
-117.759264
40
2
50
160.0000019
51
229.7751413
0
ENDSEC
0
EOF